<svg xmlns="http://www.w3.org/2000/svg" x="0px" y="0px" width="100" height="100" viewBox="0 0 50 50">
<path d="M 5 5 L 5 45 L 45 45 L 45 5 L 5 5 z M 25.347656 10.828125 C 25.743656 10.828125 26.064453 11.149875 26.064453 11.546875 C 26.064453 11.943875 25.743656 12.263672 25.347656 12.263672 C 24.950656 12.263672 24.628906 11.943875 24.628906 11.546875 C 24.628906 11.149875 24.950656 10.828125 25.347656 10.828125 z M 23.669922 11.001953 C 24.073922 11.001953 24.400391 11.328422 24.400391 11.732422 C 24.400391 12.136422 24.073922 12.462891 23.669922 12.462891 C 23.265922 12.462891 22.939453 12.136422 22.939453 11.732422 C 22.939453 11.328422 23.265922 11.001953 23.669922 11.001953 z M 27.007812 11.132812 C 27.396812 11.132812 27.712891 11.448891 27.712891 11.837891 C 27.712891 12.226891 27.396812 12.542969 27.007812 12.542969 C 26.618813 12.542969 26.302734 12.226891 26.302734 11.837891 C 26.302734 11.448891 26.618813 11.132812 27.007812 11.132812 z M 22.115234 11.638672 C 22.526234 11.638672 22.859375 11.971812 22.859375 12.382812 C 22.859375 12.499813 22.825344 12.606078 22.777344 12.705078 C 22.848344 12.682078 22.922953 12.660156 23.001953 12.660156 C 23.396953 12.660156 23.716797 12.981953 23.716797 13.376953 C 23.716797 13.772953 23.396953 14.091797 23.001953 14.091797 C 22.606953 14.091797 22.285156 13.772953 22.285156 13.376953 C 22.285156 13.269953 22.311516 13.168125 22.353516 13.078125 C 22.277516 13.104125 22.198281 13.126953 22.113281 13.126953 C 21.702281 13.126953 21.369141 12.793812 21.369141 12.382812 C 21.369141 11.969813 21.704234 11.638672 22.115234 11.638672 z M 28.517578 11.894531 C 28.899578 11.894531 29.210938 12.205891 29.210938 12.587891 C 29.210938 12.969891 28.899578 13.279297 28.517578 13.279297 C 28.411578 13.279297 28.314609 13.250031 28.224609 13.207031 C 28.299609 13.318031 28.353516 13.446797 28.353516 13.591797 C 28.353516 13.979797 28.038391 14.294922 27.650391 14.294922 C 27.551391 14.294922 27.456094 14.272328 27.371094 14.236328 C 27.478094 14.358328 27.550781 14.513453 27.550781 14.689453 C 27.550781 15.072453 27.239469 15.384766 26.855469 15.384766 C 26.471469 15.384766 26.160156 15.073453 26.160156 14.689453 C 26.160156 14.305453 26.471469 13.994141 26.855469 13.994141 C 26.952469 13.994141 27.044906 14.015781 27.128906 14.050781 C 27.019906 13.926781 26.947266 13.769797 26.947266 13.591797 C 26.947266 13.203797 27.262391 12.888672 27.650391 12.888672 C 27.759391 12.888672 27.858172 12.918891 27.951172 12.962891 C 27.878172 12.852891 27.826172 12.728891 27.826172 12.587891 C 27.827172 12.204891 28.135578 11.894531 28.517578 11.894531 z M 24.550781 12.248047 C 24.943781 12.248047 25.261719 12.565984 25.261719 12.958984 C 25.261719 13.351984 24.943781 13.669922 24.550781 13.669922 C 24.157781 13.669922 23.839844 13.351984 23.839844 12.958984 C 23.839844 12.565984 24.157781 12.248047 24.550781 12.248047 z M 26.150391 12.326172 C 26.541391 12.326172 26.857422 12.642203 26.857422 13.033203 C 26.857422 13.423203 26.541391 13.740234 26.150391 13.740234 C 25.760391 13.740234 25.443359 13.424203 25.443359 13.033203 C 25.443359 12.642203 25.760391 12.326172 26.150391 12.326172 z M 20.802734 12.683594 C 21.220734 12.683594 21.558594 13.021453 21.558594 13.439453 C 21.558594 13.475453 21.542109 13.507969 21.537109 13.542969 C 21.576109 13.535969 21.612344 13.519531 21.652344 13.519531 C 22.049344 13.519531 22.371094 13.843234 22.371094 14.240234 C 22.371094 14.320234 22.351172 14.394797 22.326172 14.466797 C 22.387172 14.448797 22.446672 14.429688 22.513672 14.429688 C 22.889672 14.429688 23.193359 14.734375 23.193359 15.109375 C 23.193359 15.284375 23.123625 15.438594 23.015625 15.558594 C 23.122625 15.479594 23.247625 15.425781 23.390625 15.425781 C 23.746625 15.425781 24.035156 15.714313 24.035156 16.070312 C 24.035156 16.426313 23.746625 16.714844 23.390625 16.714844 C 23.034625 16.714844 22.746094 16.426313 22.746094 16.070312 C 22.746094 15.906313 22.811109 15.759484 22.912109 15.646484 C 22.798109 15.731484 22.665672 15.791016 22.513672 15.791016 C 22.137672 15.791016 21.832031 15.485375 21.832031 15.109375 C 21.832031 15.040375 21.852094 14.979016 21.871094 14.916016 C 21.800094 14.939016 21.728391 14.960938 21.650391 14.960938 C 21.252391 14.960938 20.929688 14.637234 20.929688 14.240234 C 20.929688 14.214234 20.942312 14.192969 20.945312 14.167969 C 20.896313 14.177969 20.850828 14.197266 20.798828 14.197266 C 20.380828 14.197266 20.041016 13.857453 20.041016 13.439453 C 20.044016 13.021453 20.384734 12.683594 20.802734 12.683594 z M 29.757812 13.052734 C 30.132812 13.052734 30.435547 13.355469 30.435547 13.730469 C 30.435547 14.105469 30.132812 14.408203 29.757812 14.408203 C 29.689812 14.408203 29.627406 14.387141 29.566406 14.369141 C 29.587406 14.436141 29.609375 14.504125 29.609375 14.578125 C 29.609375 14.963125 29.295156 15.277344 28.910156 15.277344 C 28.857156 15.277344 28.811719 15.257094 28.761719 15.246094 C 28.797719 15.330094 28.818359 15.424484 28.818359 15.521484 C 28.818359 15.907484 28.505141 16.220703 28.119141 16.220703 C 28.069141 16.220703 28.025516 16.201406 27.978516 16.191406 C 28.052516 16.301406 28.107422 16.428266 28.107422 16.572266 C 28.107422 16.953266 27.798016 17.263672 27.416016 17.263672 C 27.344016 17.263672 27.279844 17.241656 27.214844 17.222656 C 27.312844 17.337656 27.378906 17.481531 27.378906 17.644531 C 27.378906 17.825479 27.303505 17.989752 27.185547 18.109375 C 27.302425 18.016958 27.444823 17.953125 27.605469 17.953125 C 27.632469 17.953125 27.653688 17.96575 27.679688 17.96875 C 27.636688 17.87775 27.609375 17.779875 27.609375 17.671875 C 27.609375 17.283875 27.9235 16.96875 28.3125 16.96875 C 28.3355 16.96875 28.355906 16.980422 28.378906 16.982422 C 28.347906 16.902422 28.326172 16.815609 28.326172 16.724609 C 28.326172 16.335609 28.64225 16.021484 29.03125 16.021484 C 29.07125 16.021484 29.104578 16.037922 29.142578 16.044922 C 29.132578 15.996922 29.113281 15.949437 29.113281 15.898438 C 29.113281 15.515438 29.425594 15.205078 29.808594 15.205078 C 29.866594 15.205078 29.916703 15.224281 29.970703 15.238281 C 29.968703 15.216281 29.957031 15.198781 29.957031 15.175781 C 29.957031 14.807781 30.255047 14.509766 30.623047 14.509766 C 30.991047 14.509766 31.289063 14.807781 31.289062 15.175781 C 31.289062 15.543781 30.991047 15.841797 30.623047 15.841797 C 30.574047 15.841797 30.530375 15.8225 30.484375 15.8125 C 30.488375 15.8425 30.503906 15.869391 30.503906 15.900391 C 30.503906 16.283391 30.191594 16.59375 29.808594 16.59375 C 29.771594 16.59375 29.741078 16.577266 29.705078 16.572266 C 29.717078 16.623266 29.736328 16.671562 29.736328 16.726562 C 29.736328 17.115562 29.42025 17.431641 29.03125 17.431641 C 29.00725 17.431641 28.988844 17.421922 28.964844 17.419922 C 28.995844 17.498922 29.017578 17.583828 29.017578 17.673828 C 29.017578 17.731828 28.997375 17.782938 28.984375 17.835938 C 29.094375 17.586938 29.341859 17.412109 29.630859 17.412109 C 29.675859 17.412109 29.714812 17.4295 29.757812 17.4375 C 29.755813 17.4175 29.746094 17.400859 29.746094 17.380859 C 29.746094 16.999859 30.054547 16.689453 30.435547 16.689453 C 30.504547 16.689453 30.567859 16.710516 30.630859 16.728516 C 30.633859 16.370516 30.924203 16.082031 31.283203 16.082031 C 31.643203 16.082031 31.935547 16.373375 31.935547 16.734375 C 31.935547 17.095375 31.644203 17.386719 31.283203 17.386719 C 31.226203 17.386719 31.174094 17.367516 31.121094 17.353516 C 31.121094 17.362516 31.126953 17.369906 31.126953 17.378906 C 31.126953 17.758906 30.8185 18.068359 30.4375 18.068359 C 30.3985 18.068359 30.364172 18.052875 30.326172 18.046875 C 30.329172 18.072875 30.341797 18.094094 30.341797 18.121094 C 30.341797 18.513094 30.024812 18.830078 29.632812 18.830078 C 29.607813 18.830078 29.584547 18.819406 29.560547 18.816406 C 29.574547 18.871406 29.595703 18.925375 29.595703 18.984375 C 29.595703 19.264375 29.429313 19.499188 29.195312 19.617188 C 29.268313 19.592188 29.345734 19.570313 29.427734 19.570312 C 29.459734 19.570312 29.486578 19.585844 29.517578 19.589844 C 29.515578 19.565844 29.503906 19.543531 29.503906 19.519531 C 29.503906 19.125531 29.82475 18.806641 30.21875 18.806641 C 30.27675 18.806641 30.327812 18.826844 30.382812 18.839844 C 30.393812 18.473844 30.690594 18.179688 31.058594 18.179688 C 31.148594 18.179688 31.2345 18.197469 31.3125 18.230469 C 31.3445 17.907469 31.608453 17.652344 31.939453 17.652344 C 32.292453 17.652344 32.580078 17.938969 32.580078 18.292969 C 32.580078 18.646969 32.292453 18.933594 31.939453 18.933594 C 31.865453 18.933594 31.798422 18.913625 31.732422 18.890625 C 31.715422 19.251625 31.423594 19.541016 31.058594 19.541016 C 31.012594 19.541016 30.972688 19.524625 30.929688 19.515625 C 30.929688 19.517625 30.929688 19.519484 30.929688 19.521484 C 30.929688 19.915484 30.610797 20.234375 30.216797 20.234375 C 30.188797 20.234375 30.165672 20.22175 30.138672 20.21875 C 30.141672 20.24675 30.154297 20.272781 30.154297 20.300781 C 30.154297 20.566781 30.005969 20.790969 29.792969 20.917969 C 29.852969 20.901969 29.909609 20.880859 29.974609 20.880859 C 30.021609 20.880859 30.062422 20.89725 30.107422 20.90625 C 30.114422 20.52625 30.422687 20.220703 30.804688 20.220703 C 30.885687 20.220703 30.960203 20.242578 31.033203 20.267578 C 31.071203 19.937578 31.341641 19.677734 31.681641 19.677734 C 31.795641 19.677734 31.896234 19.713672 31.990234 19.763672 C 32.034234 19.461672 32.284609 19.224609 32.599609 19.224609 C 32.945609 19.224609 33.226562 19.505563 33.226562 19.851562 C 33.226562 20.197563 32.945609 20.478516 32.599609 20.478516 C 32.502609 20.478516 32.414031 20.453062 32.332031 20.414062 C 32.295031 20.745062 32.024594 21.005859 31.683594 21.005859 C 31.616594 21.005859 31.555141 20.98675 31.494141 20.96875 C 31.469141 21.33175 31.174688 21.621094 30.804688 21.621094 C 30.770688 21.621094 30.742938 21.607563 30.710938 21.601562 C 30.710938 21.607563 30.712891 21.611187 30.712891 21.617188 C 30.712891 21.901187 30.546547 22.140672 30.310547 22.263672 C 30.378547 22.241672 30.448438 22.220703 30.523438 22.220703 C 30.593438 22.220703 30.658656 22.242719 30.722656 22.261719 C 30.754656 21.916719 31.035625 21.640625 31.390625 21.640625 C 31.495625 21.640625 31.590687 21.668937 31.679688 21.710938 C 31.733687 21.407937 31.986687 21.173828 32.304688 21.173828 C 32.441688 21.173828 32.562016 21.225828 32.666016 21.298828 C 32.720016 21.014828 32.957813 20.796875 33.257812 20.796875 C 33.596812 20.796875 33.871094 21.071156 33.871094 21.410156 C 33.871094 21.749156 33.596813 22.023438 33.257812 22.023438 C 33.135813 22.023438 33.029594 21.978969 32.933594 21.917969 C 32.885594 22.227969 32.627688 22.470703 32.304688 22.470703 C 32.213687 22.470703 32.129781 22.451969 32.050781 22.417969 C 32.001781 22.745969 31.730672 23 31.388672 23 C 31.332672 23 31.282469 22.98175 31.230469 22.96875 C 31.212469 23.34675 30.905438 23.648438 30.523438 23.648438 C 30.488437 23.648438 30.459781 23.632906 30.425781 23.628906 C 30.417781 23.813906 30.344563 23.980422 30.226562 24.107422 C 30.288563 24.110422 30.345344 24.126531 30.402344 24.144531 C 30.456344 23.816531 30.727313 23.5625 31.070312 23.5625 C 31.164313 23.5625 31.253938 23.581234 31.335938 23.615234 C 31.387937 23.303234 31.647609 23.060547 31.974609 23.060547 C 32.104609 23.060547 32.220266 23.109828 32.322266 23.173828 C 32.384266 22.889828 32.624734 22.671875 32.927734 22.671875 C 33.087734 22.671875 33.230797 22.737937 33.341797 22.835938 C 33.403797 22.570937 33.630063 22.367188 33.914062 22.367188 C 34.246063 22.367188 34.515625 22.63675 34.515625 22.96875 C 34.515625 23.30075 34.246063 23.570313 33.914062 23.570312 C 33.767063 23.570312 33.638203 23.511828 33.533203 23.423828 C 33.476203 23.712828 33.231781 23.935547 32.925781 23.935547 C 32.808781 23.935547 32.705328 23.893891 32.611328 23.837891 C 32.554328 24.144891 32.297609 24.380859 31.974609 24.380859 C 31.893609 24.380859 31.816141 24.362938 31.744141 24.335938 C 31.702141 24.676938 31.422312 24.943359 31.070312 24.943359 C 31.014312 24.943359 30.964109 24.922156 30.912109 24.910156 C 30.894109 25.084156 30.828937 25.244328 30.710938 25.361328 C 30.807938 25.361328 30.900375 25.380016 30.984375 25.416016 C 31.055375 25.124016 31.305141 24.902344 31.619141 24.902344 C 31.740141 24.902344 31.848312 24.944 31.945312 25 C 32.003313 24.707 32.250547 24.482422 32.560547 24.482422 C 32.716547 24.482422 32.853844 24.544719 32.964844 24.636719 C 33.032844 24.370719 33.262828 24.169922 33.548828 24.169922 C 33.736828 24.169922 33.898719 24.258578 34.011719 24.392578 C 34.074719 24.135578 34.295266 23.939453 34.572266 23.939453 C 34.897266 23.939453 35.160156 24.203344 35.160156 24.527344 C 35.160156 24.852344 34.897266 25.115234 34.572266 25.115234 C 34.397266 25.115234 34.244719 25.035063 34.136719 24.914062 C 34.075719 25.189062 33.840875 25.400391 33.546875 25.400391 C 33.402875 25.400391 33.276875 25.343766 33.171875 25.259766 C 33.106875 25.545766 32.863594 25.761719 32.558594 25.761719 C 32.449594 25.761719 32.351719 25.727688 32.261719 25.679688 C 32.207719 25.992687 31.947188 26.236328 31.617188 26.236328 C 31.540187 26.236328 31.467437 26.217359 31.398438 26.193359 C 31.367438 26.384359 31.267188 26.544344 31.117188 26.652344 C 31.151187 26.647344 31.181797 26.632812 31.216797 26.632812 C 31.341797 26.632812 31.451734 26.674422 31.552734 26.732422 C 31.623734 26.453422 31.864063 26.242188 32.164062 26.242188 C 32.312063 26.242188 32.441781 26.300766 32.550781 26.384766 C 32.614781 26.109766 32.847578 25.900391 33.142578 25.900391 C 33.326578 25.900391 33.487563 25.985328 33.601562 26.111328 C 33.670563 25.857328 33.893922 25.666016 34.169922 25.666016 C 34.389922 25.666016 34.573734 25.790797 34.677734 25.966797 C 34.733734 25.707797 34.953516 25.509766 35.228516 25.509766 C 35.546516 25.509766 35.804688 25.766984 35.804688 26.083984 C 35.804688 26.400984 35.546516 26.658203 35.228516 26.658203 C 35.019516 26.658203 34.845141 26.542953 34.744141 26.376953 C 34.689141 26.651953 34.458969 26.861328 34.167969 26.861328 C 33.994969 26.861328 33.841422 26.786922 33.732422 26.669922 C 33.664422 26.938922 33.432578 27.140625 33.142578 27.140625 C 33.005578 27.140625 32.885203 27.087719 32.783203 27.011719 C 32.723203 27.304719 32.474062 27.527344 32.164062 27.527344 C 32.059063 27.527344 31.965906 27.497125 31.878906 27.453125 C 31.814906 27.766125 31.548797 28.007812 31.216797 28.007812 C 31.188797 28.007812 31.165672 27.993234 31.138672 27.990234 C 31.168672 28.062234 31.180547 28.143609 31.185547 28.224609 C 31.300547 28.038609 31.495469 27.90625 31.730469 27.90625 C 31.881469 27.90625 32.013047 27.966734 32.123047 28.052734 C 32.191047 27.783734 32.424844 27.580078 32.714844 27.580078 C 32.889844 27.580078 33.045203 27.654484 33.158203 27.771484 C 33.225203 27.512484 33.450469 27.318359 33.730469 27.318359 C 33.949469 27.318359 34.131328 27.440234 34.236328 27.615234 C 34.296328 27.357234 34.516969 27.160156 34.792969 27.160156 C 35.055969 27.160156 35.268797 27.338125 35.341797 27.578125 C 35.374797 27.300125 35.600719 27.082031 35.886719 27.082031 C 36.195719 27.082031 36.447266 27.333578 36.447266 27.642578 C 36.447266 27.951578 36.195719 28.201172 35.886719 28.201172 C 35.636719 28.201172 35.433328 28.033641 35.361328 27.806641 C 35.327328 28.096641 35.090969 28.324219 34.792969 28.324219 C 34.583969 28.324219 34.407687 28.207969 34.304688 28.042969 C 34.245688 28.312969 34.017469 28.519531 33.730469 28.519531 C 33.564469 28.519531 33.413687 28.45275 33.304688 28.34375 C 33.238687 28.61575 33.004891 28.820313 32.712891 28.820312 C 32.576891 28.820312 32.456516 28.768359 32.353516 28.693359 C 32.289516 28.986359 32.041516 29.210938 31.728516 29.210938 C 31.674516 29.210938 31.626172 29.192687 31.576172 29.179688 C 31.603172 29.252688 31.623047 29.328156 31.623047 29.410156 C 31.623047 29.635156 31.505938 29.825266 31.335938 29.947266 C 31.366937 29.943266 31.392828 29.929688 31.423828 29.929688 C 31.508828 29.929688 31.590062 29.946563 31.664062 29.976562 C 31.646062 29.919563 31.628906 29.861828 31.628906 29.798828 C 31.628906 29.458828 31.903188 29.183594 32.242188 29.183594 C 32.421188 29.183594 32.579406 29.263766 32.691406 29.384766 C 32.753406 29.122766 32.979719 28.921875 33.261719 28.921875 C 33.475719 28.921875 33.652813 29.039984 33.757812 29.208984 C 33.809812 28.943984 34.033453 28.740234 34.314453 28.740234 C 34.583453 28.740234 34.799281 28.926781 34.863281 29.175781 C 34.888281 28.890781 35.120109 28.664062 35.412109 28.664062 C 35.721109 28.664062 35.972656 28.913656 35.972656 29.222656 C 35.972656 29.531656 35.722109 29.783203 35.412109 29.783203 C 35.153109 29.783203 34.946812 29.604234 34.882812 29.365234 C 34.857813 29.661234 34.616453 29.894531 34.314453 29.894531 C 34.109453 29.894531 33.938938 29.782094 33.835938 29.621094 C 33.783938 29.898094 33.551766 30.111328 33.259766 30.111328 C 33.090766 30.111328 32.939078 30.039781 32.830078 29.925781 C 32.769078 30.201781 32.535188 30.412109 32.242188 30.412109 C 32.161187 30.412109 32.085625 30.393234 32.015625 30.365234 C 32.035625 30.427234 32.054688 30.489641 32.054688 30.556641 C 32.054688 30.904641 31.771828 31.1875 31.423828 31.1875 C 31.266828 31.1875 31.126625 31.122344 31.015625 31.027344 C 30.987625 31.095344 30.943484 31.153031 30.896484 31.207031 C 31.086484 31.232031 31.245703 31.335281 31.345703 31.488281 C 31.432703 31.268281 31.644484 31.109375 31.896484 31.109375 C 32.012484 31.109375 32.115031 31.152938 32.207031 31.210938 C 32.189031 31.154937 32.171875 31.097156 32.171875 31.035156 C 32.171875 30.713156 32.432859 30.451172 32.755859 30.451172 C 32.972859 30.451172 33.154859 30.575953 33.255859 30.751953 C 33.295859 30.476953 33.523594 30.263672 33.808594 30.263672 C 34.075594 30.263672 34.289609 30.450219 34.349609 30.699219 C 34.358609 30.401219 34.598438 30.162109 34.898438 30.162109 C 35.203437 30.162109 35.451172 30.409844 35.451172 30.714844 C 35.451172 31.019844 35.203437 31.267578 34.898438 31.267578 C 34.639437 31.267578 34.433047 31.086656 34.373047 30.847656 C 34.364047 31.153656 34.116594 31.400391 33.808594 31.400391 C 33.598594 31.400391 33.423219 31.280328 33.324219 31.111328 C 33.285219 31.397328 33.051859 31.621094 32.755859 31.621094 C 32.642859 31.621094 32.542125 31.581391 32.453125 31.525391 C 32.472125 31.583391 32.490234 31.641078 32.490234 31.705078 C 32.490234 32.033078 32.223531 32.300781 31.894531 32.300781 C 31.693531 32.300781 31.525969 32.194969 31.417969 32.042969 C 31.383969 32.143969 31.330859 32.231734 31.255859 32.302734 C 31.533859 32.302734 31.755172 32.493047 31.826172 32.748047 C 31.877172 32.489047 32.095141 32.289062 32.369141 32.289062 C 32.517141 32.289062 32.65 32.350359 32.75 32.443359 C 32.733 32.389359 32.716797 32.335391 32.716797 32.275391 C 32.716797 31.969391 32.964531 31.722656 33.269531 31.722656 C 33.575531 31.722656 33.822266 31.970391 33.822266 32.275391 C 33.822266 32.580391 33.574531 32.828125 33.269531 32.828125 C 33.124531 32.828125 32.995484 32.768734 32.896484 32.677734 C 32.914484 32.732734 32.931641 32.790563 32.931641 32.851562 C 32.931641 33.162562 32.679141 33.412109 32.369141 33.412109 C 32.115141 33.412109 31.907891 33.241766 31.837891 33.009766 C 31.803891 33.199766 31.688484 33.357406 31.521484 33.441406 C 31.576484 33.423406 31.632359 33.40625 31.693359 33.40625 C 32.008359 33.40625 32.263672 33.661563 32.263672 33.976562 C 32.263672 34.291562 32.008359 34.546875 31.693359 34.546875 C 31.574359 34.546875 31.469906 34.502453 31.378906 34.439453 C 31.362906 34.518453 31.336875 34.591203 31.296875 34.658203 C 31.431875 34.701203 31.542953 34.782578 31.626953 34.892578 C 31.693953 34.673578 31.891812 34.511719 32.132812 34.511719 C 32.428812 34.511719 32.667969 34.751828 32.667969 35.048828 C 32.667969 35.345828 32.428812 35.583984 32.132812 35.583984 C 31.982813 35.583984 31.847 35.522828 31.75 35.423828 C 31.731 35.519828 31.694625 35.605594 31.640625 35.683594 C 31.843625 35.729594 32.01475 35.861828 32.09375 36.048828 C 32.12975 35.805828 32.330031 35.617188 32.582031 35.617188 C 32.859031 35.617188 33.083984 35.842141 33.083984 36.119141 C 33.083984 36.396141 32.859031 36.621094 32.582031 36.621094 C 32.385031 36.621094 32.218719 36.504844 32.136719 36.339844 C 32.129719 36.443844 32.096875 36.536094 32.046875 36.621094 C 32.051875 36.621094 32.0575 36.617188 32.0625 36.617188 C 32.3955 36.617188 32.664062 36.887703 32.664062 37.220703 C 32.664062 37.312703 32.640516 37.398562 32.603516 37.476562 C 32.680516 37.433563 32.765375 37.402344 32.859375 37.402344 C 33.158375 37.402344 33.400391 37.644359 33.400391 37.943359 C 33.404391 38.248359 33.163234 38.490234 32.865234 38.490234 C 32.566234 38.490234 32.324219 38.248219 32.324219 37.949219 C 32.324219 37.874219 32.338234 37.802281 32.365234 37.738281 C 32.275234 37.790281 32.178406 37.830078 32.066406 37.830078 C 31.733406 37.830078 31.462891 37.560562 31.462891 37.226562 C 31.462891 37.120562 31.497922 37.025453 31.544922 36.939453 C 31.530922 36.940453 31.519859 36.947266 31.505859 36.947266 C 31.150859 36.947266 30.863281 36.659688 30.863281 36.304688 C 30.863281 36.174687 30.911562 36.061938 30.976562 35.960938 C 30.661562 35.901938 30.417969 35.637687 30.417969 35.304688 C 30.417969 35.187688 30.453859 35.083328 30.505859 34.986328 C 30.200859 34.903328 29.972656 34.635688 29.972656 34.304688 C 29.972656 34.196688 30.000969 34.095906 30.042969 34.003906 C 29.749969 33.901906 29.535156 33.632688 29.535156 33.304688 C 29.535156 33.199688 29.556703 33.100766 29.595703 33.009766 C 29.314703 32.897766 29.113281 32.623734 29.113281 32.302734 C 29.113281 32.201734 29.136875 32.107531 29.171875 32.019531 C 28.890875 31.902531 28.693359 31.625734 28.693359 31.302734 C 28.693359 31.204734 28.715047 31.111391 28.748047 31.025391 C 28.468047 30.903391 28.273438 30.625781 28.273438 30.300781 C 28.273438 30.204781 28.295172 30.11625 28.326172 30.03125 C 28.047172 29.90525 27.851563 29.626781 27.851562 29.300781 C 27.851562 29.205781 27.87625 29.118203 27.90625 29.033203 C 27.63025 28.902203 27.435547 28.626781 27.435547 28.300781 C 27.435547 28.198781 27.458187 28.102672 27.492188 28.013672 C 27.227187 27.882672 27.042969 27.615781 27.042969 27.300781 C 27.042969 27.185781 27.068328 27.076516 27.111328 26.978516 C 26.856328 26.856516 26.677734 26.601781 26.677734 26.300781 C 26.677734 26.167781 26.719297 26.048453 26.779297 25.939453 C 26.521297 25.839453 26.337891 25.591828 26.337891 25.298828 C 26.337891 25.142828 26.399328 25.006625 26.486328 24.890625 C 26.211328 24.827625 26.001953 24.593828 26.001953 24.298828 C 26.001953 24.116828 26.082031 23.95675 26.207031 23.84375 C 25.909031 23.83875 25.669922 23.595875 25.669922 23.296875 C 25.669922 22.994875 25.914797 22.75 26.216797 22.75 C 26.415797 22.75 26.581734 22.861484 26.677734 23.021484 C 26.707734 22.941484 26.751594 22.871594 26.808594 22.808594 C 26.559594 22.784594 26.355391 22.622531 26.275391 22.394531 C 26.228391 22.614531 26.043547 22.78125 25.810547 22.78125 C 25.541547 22.78125 25.322266 22.564875 25.322266 22.296875 C 25.322266 22.027875 25.541547 21.808594 25.810547 21.808594 C 26.007547 21.808594 26.175953 21.928656 26.251953 22.097656 C 26.275953 21.930656 26.360281 21.788453 26.488281 21.689453 C 26.468281 21.691453 26.451641 21.701172 26.431641 21.701172 C 26.105641 21.701172 25.841797 21.436328 25.841797 21.111328 C 25.841797 20.786328 26.105641 20.521484 26.431641 20.521484 C 26.495641 20.521484 26.553328 20.539594 26.611328 20.558594 C 26.549328 20.457594 26.505859 20.34575 26.505859 20.21875 C 26.505859 20.03675 26.579266 19.873906 26.697266 19.753906 C 26.649266 19.765906 26.602781 19.78125 26.550781 19.78125 C 26.202781 19.78125 25.921875 19.500344 25.921875 19.152344 C 25.921875 18.804344 26.202781 18.521484 26.550781 18.521484 C 26.692781 18.521484 26.816875 18.57625 26.921875 18.65625 C 26.921875 18.65025 26.919922 18.646625 26.919922 18.640625 C 26.919922 18.453659 26.994025 18.283866 27.115234 18.160156 C 27.003202 18.247252 26.869819 18.306641 26.716797 18.306641 C 26.350797 18.306641 26.054687 18.010531 26.054688 17.644531 C 26.054688 17.278531 26.350797 16.982422 26.716797 16.982422 C 26.781797 16.982422 26.840391 17.001531 26.900391 17.019531 C 26.795391 16.898531 26.724609 16.745266 26.724609 16.572266 C 26.724609 16.190266 27.034016 15.880859 27.416016 15.880859 C 27.464016 15.880859 27.505781 15.899203 27.550781 15.908203 C 27.473781 15.796203 27.417969 15.667484 27.417969 15.521484 C 27.417969 15.134484 27.730187 14.822266 28.117188 14.822266 C 28.170188 14.822266 28.217578 14.840562 28.267578 14.851562 C 28.232578 14.767563 28.212891 14.676078 28.212891 14.580078 C 28.212891 14.195078 28.525156 13.882813 28.910156 13.882812 C 28.983156 13.882812 29.050187 13.902828 29.117188 13.923828 C 29.098188 13.861828 29.078125 13.800422 29.078125 13.732422 C 29.078125 13.355422 29.382812 13.052734 29.757812 13.052734 z"></path>
</svg>

