<svg xmlns="http://www.w3.org/2000/svg" x="0px" y="0px" width="100" height="100" viewBox="0,0,256,256">
<g fill="#0971f6" fill-rule="nonzero" stroke="none" stroke-width="1" stroke-linecap="butt" stroke-linejoin="miter" stroke-miterlimit="10" stroke-dasharray="" stroke-dashoffset="0" font-family="none" font-weight="none" font-size="none" text-anchor="none" style="mix-blend-mode: normal"><g transform="scale(5.12,5.12)"><path d="M24,16c-1.657,0 -3,1.343 -3,3v12c0,1.657 1.343,3 3,3c1.657,0 3,-1.343 3,-3v-12c0,-1.657 -1.343,-3 -3,-3zM31,16c-1.657,0 -3,1.343 -3,3v12c0,1.657 1.343,3 3,3c1.657,0 3,-1.343 3,-3v-12c0,-1.657 -1.343,-3 -3,-3zM45,18c-1.657,0 -3,1.343 -3,3v8c0,1.657 1.343,3 3,3c1.657,0 3,-1.343 3,-3v-8c0,-1.657 -1.343,-3 -3,-3zM38,21c-1.657,0 -3,1.343 -3,3v2c0,1.657 1.343,3 3,3c1.657,0 3,-1.343 3,-3v-2c0,-1.657 -1.343,-3 -3,-3zM11,16c-4.963,0 -9,4.037 -9,9c0,4.963 4.037,9 9,9c4.963,0 9,-4.037 9,-9c0,-4.963 -4.037,-9 -9,-9zM11,28c-1.657,0 -3,-1.343 -3,-3c0,-1.657 1.343,-3 3,-3c1.657,0 3,1.343 3,3c0,1.657 -1.343,3 -3,3z"></path></g></g>
</svg>

