<svg xmlns="http://www.w3.org/2000/svg" x="0px" y="0px" width="100" height="100" viewBox="0 0 50 50">
<path d="M 5 5 L 5 45 L 45 45 L 45 5 L 5 5 z M 19 13 L 32 13 C 34.757 13 37 15.243 37 18 C 37 20.757 34.757 23 32 23 L 30.894531 23 L 35.589844 28.488281 C 37.485844 30.381281 37.486109 33.554906 35.537109 35.503906 C 34.562109 36.478906 33.281953 36.964844 32.001953 36.964844 C 30.721953 36.964844 29.440797 36.478906 28.466797 35.503906 L 24 31.035156 L 24 32 C 24 34.757 21.757 37 19 37 C 16.243 37 14 34.757 14 32 L 14 18 C 14 15.243 16.243 13 19 13 z M 19 15 C 17.346 15 16 16.346 16 18 L 16 32 C 16 33.654 17.346 35 19 35 C 20.654 35 22 33.654 22 32 L 22 18 C 22 16.346 20.654 15 19 15 z M 22.974609 15 C 23.609609 15.838 24 16.87 24 18 L 24 21 L 32 21 C 33.654 21 35 19.654 35 18 C 35 16.346 33.654 15 32 15 L 22.974609 15 z M 24 23 L 24 28.244141 C 24.034 28.270141 24.074469 28.282453 24.105469 28.314453 L 29.880859 34.089844 C 31.050859 35.259844 32.951094 35.259844 34.121094 34.089844 C 35.291094 32.919844 35.291094 31.015703 34.121094 29.845703 L 28.263672 23 L 24 23 z"></path>
</svg>
